<svg width="24" height="24" viewBox="0 0 24 24" fill="none" xmlns="http://www.w3.org/2000/svg">
<rect width="24" height="24" rx="12" fill="#F4C038"/>
<path d="M12.8699 17C12.7765 17 12.6972 16.972 12.6319 16.916C12.5759 16.8507 12.5479 16.7713 12.5479 16.678V8.838L10.2239 10.63C10.1585 10.686 10.0885 10.714 10.0139 10.714C9.92986 10.714 9.85053 10.6673 9.77586 10.574L9.41186 10.112C9.36519 10.0467 9.34186 9.98133 9.34186 9.916C9.34186 9.804 9.38853 9.71533 9.48186 9.65L12.5339 7.298C12.6365 7.23267 12.7579 7.2 12.8979 7.2H13.6119C13.7052 7.2 13.7799 7.23267 13.8359 7.298C13.9012 7.354 13.9339 7.42867 13.9339 7.522V16.678C13.9339 16.7713 13.9012 16.8507 13.8359 16.916C13.7799 16.972 13.7052 17 13.6119 17H12.8699Z" fill="#20222A"/>
</svg>
