<svg width="24" height="24" viewBox="0 0 24 24" fill="none" xmlns="http://www.w3.org/2000/svg">
<rect width="24" height="24" rx="12" fill="#F4C038"/>
<path d="M8.8996 17C8.80627 17 8.72693 16.972 8.6616 16.916C8.6056 16.8507 8.5776 16.7713 8.5776 16.678V16.23C8.5776 16.0153 8.69427 15.81 8.9276 15.614L11.8956 12.646C12.6143 12.0487 13.1089 11.5633 13.3796 11.19C13.6503 10.8073 13.7856 10.406 13.7856 9.986C13.7856 9.44467 13.6316 9.02 13.3236 8.712C13.0249 8.404 12.5863 8.25 12.0076 8.25C11.4663 8.25 11.0323 8.41333 10.7056 8.74C10.3789 9.05733 10.1783 9.482 10.1036 10.014C10.0849 10.126 10.0383 10.21 9.9636 10.266C9.89827 10.3127 9.8236 10.336 9.7396 10.336H9.0116C8.9276 10.336 8.8576 10.3127 8.8016 10.266C8.7456 10.21 8.7176 10.1447 8.7176 10.07C8.73627 9.566 8.8716 9.08533 9.1236 8.628C9.3756 8.16133 9.74427 7.78333 10.2296 7.494C10.7243 7.19533 11.3169 7.046 12.0076 7.046C13.0623 7.046 13.8556 7.32133 14.3876 7.872C14.9289 8.41333 15.1996 9.104 15.1996 9.944C15.1996 10.532 15.0503 11.064 14.7516 11.54C14.4623 12.0067 14.0096 12.5107 13.3936 13.052L10.7056 15.782H15.0736C15.1763 15.782 15.2556 15.8147 15.3116 15.88C15.3769 15.936 15.4096 16.0107 15.4096 16.104V16.678C15.4096 16.7713 15.3769 16.8507 15.3116 16.916C15.2463 16.972 15.1669 17 15.0736 17H8.8996Z" fill="#20222A"/>
</svg>
