<svg width="24" height="24" viewBox="0 0 24 24" fill="none" xmlns="http://www.w3.org/2000/svg">
<rect width="24" height="24" rx="12" fill="#F4C038"/>
<path d="M11.9679 17.14C11.2306 17.14 10.5912 17.0233 10.0499 16.79C9.5179 16.5473 9.1119 16.2347 8.8319 15.852C8.56123 15.4693 8.41657 15.068 8.3979 14.648C8.3979 14.564 8.4259 14.4987 8.4819 14.452C8.5379 14.396 8.6079 14.368 8.6919 14.368H9.3779C9.5739 14.368 9.70457 14.4707 9.7699 14.676C9.89123 15.1427 10.1526 15.474 10.5539 15.67C10.9552 15.8567 11.4266 15.95 11.9679 15.95C12.6306 15.95 13.1579 15.796 13.5499 15.488C13.9419 15.1707 14.1379 14.718 14.1379 14.13C14.1379 13.0007 13.4519 12.436 12.0799 12.436H10.7499C10.6566 12.436 10.5772 12.408 10.5119 12.352C10.4559 12.2867 10.4279 12.2073 10.4279 12.114V11.736C10.4279 11.6053 10.4792 11.4793 10.5819 11.358L13.2979 8.39H9.1679C9.07457 8.39 8.99523 8.362 8.9299 8.306C8.8739 8.24067 8.8459 8.16133 8.8459 8.068V7.536C8.8459 7.44267 8.8739 7.36333 8.9299 7.298C8.99523 7.23267 9.07457 7.2 9.1679 7.2H14.7539C14.8566 7.2 14.9359 7.23267 14.9919 7.298C15.0572 7.354 15.0899 7.43333 15.0899 7.536V8.04C15.0899 8.152 15.0386 8.25933 14.9359 8.362L12.2339 11.372L12.4579 11.386C13.4099 11.414 14.1612 11.6613 14.7119 12.128C15.2626 12.5947 15.5379 13.276 15.5379 14.172C15.5379 14.7787 15.3839 15.306 15.0759 15.754C14.7679 16.202 14.3432 16.5473 13.8019 16.79C13.2606 17.0233 12.6492 17.14 11.9679 17.14Z" fill="#20222A"/>
</svg>
