<svg width="24" height="24" viewBox="0 0 24 24" fill="none" xmlns="http://www.w3.org/2000/svg">
<rect width="24" height="24" rx="12" fill="#F4C038"/>
<path d="M13.2663 17C13.173 17 13.0937 16.972 13.0283 16.916C12.9723 16.8507 12.9443 16.7713 12.9443 16.678V14.662H8.40834C8.31501 14.662 8.23568 14.634 8.17034 14.578C8.11434 14.5127 8.08634 14.4333 8.08634 14.34V13.78C8.08634 13.64 8.13768 13.5 8.24034 13.36L12.4403 7.438C12.487 7.36333 12.557 7.30733 12.6503 7.27C12.7437 7.22333 12.8463 7.2 12.9583 7.2H13.9663C14.0597 7.2 14.1343 7.23267 14.1903 7.298C14.2557 7.354 14.2883 7.42867 14.2883 7.522V13.444H15.5483C15.6417 13.444 15.721 13.4767 15.7863 13.542C15.8517 13.598 15.8843 13.6727 15.8843 13.766V14.34C15.8843 14.4333 15.8517 14.5127 15.7863 14.578C15.7303 14.634 15.6557 14.662 15.5623 14.662H14.2883V16.678C14.2883 16.7713 14.2557 16.8507 14.1903 16.916C14.1343 16.972 14.0597 17 13.9663 17H13.2663ZM12.9583 13.472V8.67L9.58434 13.472H12.9583Z" fill="#20222A"/>
</svg>
