<svg width="32" height="32" viewBox="0 0 32 32" fill="none" xmlns="http://www.w3.org/2000/svg">
<g clip-path="url(#clip0_336_11709)">
<g clip-path="url(#clip1_336_11709)">
<path fill-rule="evenodd" clip-rule="evenodd" d="M18 0C17.4 0 17 0.4 17 1V15H31C31.6 15 32 14.6 32 14C32 6.2 25.8 0 18 0ZM19 13V2C24.8 2.4 29.4 7.2 30 13H19ZM27 17H15V5C15 4.4 14.6 4 14 4C6.2 4 0 10.2 0 18C0 25.8 6.2 32 14 32C21.8 32 28 25.8 28 18C28 17.4 27.6 17 27 17ZM14 30C7.4 30 2 24.6 2 18C2 11.8 6.8 6.6 13 6V18C13 18.6 13.4 19 14 19H26C25.4 25.2 20.2 30 14 30Z" fill="#F4C038"/>
</g>
</g>
<defs>
<clipPath id="clip0_336_11709">
<rect width="32" height="32" fill="white"/>
</clipPath>
<clipPath id="clip1_336_11709">
<rect width="32" height="32" fill="white"/>
</clipPath>
</defs>
</svg>
