<svg width="80" height="72" viewBox="0 0 80 72" fill="none" xmlns="http://www.w3.org/2000/svg">
<path d="M15.7037 5.83428C17.8004 2.22402 21.6754 1.4204e-06 25.8689 1.23687e-06L54.1311 0C58.3246 -1.83525e-07 62.1996 2.22401 64.2963 5.83428L78.4274 30.1657C80.5242 33.776 80.5242 38.224 78.4274 41.8343L64.2963 66.1657C62.1996 69.776 58.3246 72 54.1311 72H25.8689C21.6754 72 17.8004 69.776 15.7037 66.1657L1.57256 41.8343C-0.524188 38.224 -0.524188 33.776 1.57256 30.1657L15.7037 5.83428Z" fill="#20222A"/>
<path d="M21.214 12.5378C22.8448 9.72979 25.8586 8 29.1202 8L51.102 8C54.3636 8 57.3774 9.72979 59.0083 12.5378L69.9991 31.4622C71.6299 34.2702 71.6299 37.7298 69.9991 40.5378L59.0083 59.4622C57.3774 62.2702 54.3636 64 51.102 64H29.1202C25.8586 64 22.8448 62.2702 21.214 59.4622L10.2231 40.5378C8.5923 37.7298 8.5923 34.2702 10.2231 31.4622L21.214 12.5378Z" fill="#F4C038"/>
<path fill-rule="evenodd" clip-rule="evenodd" d="M46 30H34C32.8954 30 32 30.8954 32 32V40C32 41.1046 32.8954 42 34 42H46C47.1046 42 48 41.1046 48 40V32C48 30.8954 47.1046 30 46 30ZM34 28C31.7909 28 30 29.7909 30 32V40C30 42.2091 31.7909 44 34 44H46C48.2091 44 50 42.2091 50 40V32C50 29.7909 48.2091 28 46 28H34Z" fill="#20222A"/>
<path opacity="0.5" fill-rule="evenodd" clip-rule="evenodd" d="M32.8786 29.4648L37.8786 34.4648C39.0501 35.6364 40.9496 35.6364 42.1212 34.4648L47.1212 29.4648L48.5354 30.8791L43.5354 35.8791C41.5828 37.8317 38.417 37.8317 36.4644 35.8791L31.4644 30.8791L32.8786 29.4648Z" fill="#20222A"/>
</svg>
