<svg width="32" height="32" viewBox="0 0 32 32" fill="none" xmlns="http://www.w3.org/2000/svg">
<g clip-path="url(#clip0_335_12873)">
<path d="M14.8429 11.623C15.0645 11.6929 15.2838 11.7724 15.5 11.8615C16.4784 12.2643 17.395 12.8632 18.1899 13.6581C21.4135 16.8818 21.4135 22.1084 18.1899 25.332L15.2284 28.2935C12.0047 31.5171 6.77814 31.5171 3.55447 28.2935C0.3308 25.0698 0.330802 19.8432 3.55447 16.6195L6.51592 13.6581C6.82654 13.3475 7.15576 13.0668 7.5 12.816" stroke="#F4C038" stroke-width="2" stroke-linecap="round"/>
<path d="M17 20.3588C15.739 19.9784 14.551 19.2899 13.5545 18.2934C10.3308 15.0697 10.3308 9.8431 13.5545 6.61943L16.5159 3.65799C19.7396 0.434317 24.9662 0.434315 28.1899 3.65799C31.4135 6.88166 31.4135 12.1083 28.1899 15.3319L25.2284 18.2934C24.845 18.6768 24.4333 19.0146 24 19.3068" stroke="#F4C038" stroke-width="2" stroke-linecap="round"/>
</g>
<defs>
<clipPath id="clip0_335_12873">
<rect width="32" height="32" fill="white"/>
</clipPath>
</defs>
</svg>
