<svg width="45" height="41" viewBox="0 0 45 41" fill="none" xmlns="http://www.w3.org/2000/svg">
<path d="M31.5698 18.3495C30.7845 22.9694 35.3307 32.6773 30.0346 34.5201C24.7385 36.363 22.3904 39.5177 20.8479 32.9447C20.1276 29.8751 19.8058 24.1348 20.8479 21.489C24.0116 21.1983 25.7383 18.7144 27.6445 17.7063C32.0349 15.3843 32.3256 17.7063 31.5698 18.3495Z" fill="#EC9630"/>
<path d="M16.0463 15.1518C15.4649 9.91923 7.38352 19.2797 11.1045 25.7332L11.4533 33.9309L31.8021 35.5006L31.8586 35.2714C34.4866 24.6131 37.1196 13.9343 30.8138 18.9309C22.8749 25.2213 16.6113 20.2368 16.0463 15.1518Z" fill="#EFBC3A"/>
<path d="M32.9651 25.7811C31.7182 20.3792 31.3235 28.7651 23.6628 25.6884C15.5814 20.4426 11.2754 16.1038 10.4965 25.7811C10.4965 33.2333 14.4768 37.0922 23.0196 37.0922C37.093 35.0356 33.721 31.5472 32.9651 25.7811Z" fill="#EC9630"/>
<path fill-rule="evenodd" clip-rule="evenodd" d="M14.2751 0.558838C11.961 0.558838 9.8227 1.79338 8.66566 3.79743L0.867778 17.3038C-0.28926 19.3078 -0.289259 21.7769 0.867779 23.7809L8.66566 37.2873C9.8227 39.2913 11.961 40.5259 14.2751 40.5259H29.8708C32.1849 40.5259 34.3232 39.2913 35.4803 37.2873L43.2781 23.7809C44.4352 21.7769 44.4352 19.3078 43.2781 17.3038L35.4803 3.79743C34.3232 1.79338 32.1849 0.558838 29.8708 0.558838H14.2751ZM31.5116 31.6053V9.27974H26.3581V17.7847H17.828V9.27974H12.6744V31.6053H17.828V22.746H26.3581V31.6053H31.5116Z" fill="white"/>
</svg>
