<svg width="40" height="40" viewBox="0 0 40 40" fill="none" xmlns="http://www.w3.org/2000/svg">
<g clip-path="url(#clip0_11293_5284)">
<rect width="40" height="40" rx="20" fill="#272E3B"/>
<g clip-path="url(#clip1_11293_5284)">
<path d="M36 34.8889C35.9972 32.5323 35.0598 30.273 33.3934 28.6066C31.9192 27.1324 29.9809 26.2287 27.9217 26.0379C27.3883 25.9885 26.8568 26.1073 26.3632 26.3155L24.6644 27.0322C21.6821 28.2904 18.3179 28.2904 15.3356 27.0322L13.6368 26.3155C13.1432 26.1073 12.6117 25.9885 12.0783 26.0379C10.0191 26.2287 8.08084 27.1324 6.60661 28.6066C4.94023 30.273 4.00282 32.5323 4 34.8889V36.6667C4 40.9101 5.68571 44.9798 8.68629 47.9804C11.6869 50.981 15.7565 52.6667 20 52.6667C24.2435 52.6667 28.3131 50.981 31.3137 47.9804C34.3143 44.9798 36 40.9101 36 36.6667V34.8889Z" fill="#425170"/>
<circle cx="20" cy="16" r="9" fill="#425170"/>
</g>
<rect x="0.5" y="0.5" width="39" height="39" rx="19.5" stroke="#425170"/>
</g>
<defs>
<clipPath id="clip0_11293_5284">
<rect width="40" height="40" rx="20" fill="white"/>
</clipPath>
<clipPath id="clip1_11293_5284">
<rect width="40" height="40" rx="20" fill="white"/>
</clipPath>
</defs>
</svg>
