<svg width="32" height="32" viewBox="0 0 32 32" fill="none" xmlns="http://www.w3.org/2000/svg">
<g clip-path="url(#clip0_335_12879)">
<path fill-rule="evenodd" clip-rule="evenodd" d="M30.0606 4H1.93939C0.969697 4 0 4.77576 0 5.93939V25.3333C0 26.497 0.969697 27.2727 1.93939 27.2727H29.8667C31.0303 27.2727 31.8061 26.497 31.8061 25.3333V5.93939C32 4.77576 31.0303 4 30.0606 4ZM30.0606 24.3636C30.0606 24.9455 29.6727 25.3333 29.0909 25.3333H2.90909C2.52121 25.3333 1.93939 24.9455 1.93939 24.3636V15.6364H29.8667V24.3636H30.0606ZM30.0606 13.697H1.93939V11.7576H29.8667V13.697H30.0606ZM30.0606 9.81818H1.93939V6.90909C1.93939 6.32727 2.52121 5.93939 2.90909 5.93939H29.0909C29.6727 5.93939 30.0606 6.32727 30.0606 6.90909V9.81818ZM6.98182 21.4545H14.9333C15.5152 21.4545 15.903 21.0667 15.903 20.4848C15.903 19.903 15.5152 19.5152 14.9333 19.5152H6.98182C6.4 19.5152 6.01212 19.903 6.01212 20.4848C6.01212 21.0667 6.4 21.4545 6.98182 21.4545Z" fill="#F4C038"/>
</g>
<defs>
<clipPath id="clip0_335_12879">
<rect width="32" height="23.2727" fill="white" transform="translate(0 4)"/>
</clipPath>
</defs>
</svg>
