<svg width="21" height="21" viewBox="0 0 21 21" fill="none" xmlns="http://www.w3.org/2000/svg">
<path d="M10.5 16.5588C6.83801 16.5588 4.60147 14.974 3.25926 13.408C2.57932 12.6148 2.12434 11.819 1.84036 11.2227C1.71087 10.9507 1.61812 10.7227 1.55659 10.5588C1.61812 10.3949 1.71087 10.1669 1.84036 9.89502C2.12434 9.29867 2.57932 8.50289 3.25926 7.70963C4.60147 6.14371 6.83801 4.55884 10.5 4.55884C14.162 4.55884 16.3985 6.14371 17.7407 7.70963C18.4207 8.50289 18.8757 9.29867 19.1596 9.89502C19.2891 10.1669 19.3819 10.3949 19.4434 10.5588C19.3819 10.7227 19.2891 10.9507 19.1596 11.2227C18.8757 11.819 18.4207 12.6148 17.7407 13.408C16.3985 14.974 14.162 16.5588 10.5 16.5588Z" stroke="white" stroke-width="2" stroke-linejoin="round"/>
<circle opacity="0.5" cx="10.5" cy="10.5588" r="3" stroke="white" stroke-width="2"/>
</svg>
